<svg width="35" height="47" viewBox="0 0 35 47" fill="none" xmlns="http://www.w3.org/2000/svg">
<path d="M22.0461 22.609L23.1031 15.4635L23.2178 14.6199L23.245 14.4769L23.3129 14.1195L23.3421 13.9178C23.3664 13.8629 23.3573 13.7337 23.2996 13.8095L23.022 14.0144C22.9151 14.0923 22.8628 14.1287 22.6548 14.2988L22.35 14.5513L21.7905 15.0248L20.6678 15.994L19.5321 16.9515L18.9581 17.4305L18.1443 18.0834L17.2861 18.7823L16.4068 19.4062L16.1931 19.5619L15.9986 19.6606L15.607 19.8507C15.3763 19.9681 15.1333 20.0603 14.8822 20.1257C14.7178 20.1585 14.5506 20.1762 14.3826 20.1786L14.1618 20.1463C14.1221 20.1317 14.0834 20.1145 14.0459 20.095L14.0006 20.0749C13.9851 20.1097 14.1583 19.787 14.0713 19.9154L14.0108 19.8886C13.9142 19.7802 13.845 19.6779 13.7578 19.5618C13.6496 19.444 13.5628 19.3087 13.501 19.1618C13.3825 18.6438 13.3678 18.1085 13.4578 17.5865C13.5244 16.9601 13.62 16.3228 13.6982 15.6837L13.922 14.2267L14.1017 13.1138L14.4946 10.8672L15.2759 6.38393L15.5215 4.82328C15.5823 4.46292 15.6246 4.0996 15.6483 3.73469C15.666 3.69483 15.6484 3.63933 15.6409 3.58829C15.6333 3.53726 15.5754 3.55926 15.5404 3.59742L15.3267 3.75314C15.1921 3.8664 15.0503 3.98241 14.9113 4.10564C14.7723 4.22887 14.6383 4.35433 14.5021 4.48478L13.9908 4.9856C12.9105 6.06301 11.8258 7.1504 10.7433 8.2328C9.74337 9.22858 8.75227 10.2362 7.76998 11.2557C7.2738 11.7632 6.77478 12.2635 6.26348 12.7643L5.48363 13.5039C5.17822 13.7442 5.00325 13.9349 4.47787 14.3043L4.20938 14.4476L4.15997 14.3959L4.13477 14.3848L4.07935 14.3602L3.94138 14.3587C3.83945 14.3586 3.73784 14.3456 3.63901 14.3201C3.5332 14.2732 3.43243 14.2285 3.33166 14.1839L2.49536 13.7178L1.05893 12.8785C0.148982 12.3202 0.174934 12.1528 0.894323 12.257C1.24142 12.3035 1.75638 12.4065 2.39605 12.5409L3.44452 12.7731C3.68671 12.8387 3.69554 12.8187 3.73178 12.805C3.75771 12.7897 3.77098 12.7597 3.76491 12.7302L3.77816 12.7003C3.77816 12.7003 3.77816 12.7003 3.82233 12.6007L4.09255 12.2494C4.28933 12.0015 4.49916 11.7641 4.72118 11.5382L8.77596 7.12241C9.45974 6.38203 10.1435 5.64165 10.8402 4.91295L11.9205 3.83553L12.4646 3.30155C12.5702 3.19929 13.0068 2.73096 13.3532 2.42538L14.407 1.40776C14.7607 1.09943 15.1058 0.864817 15.449 0.593603C15.6176 0.471571 15.8039 0.30967 15.9571 0.222524L16.3244 0.182593L16.6867 0.14043C16.7372 0.127034 16.7908 0.129913 16.8398 0.148651L16.9556 0.200008L17.2152 0.267322C17.3182 0.317167 17.4135 0.381512 17.4982 0.458351C17.6482 0.615385 17.7721 0.795094 17.8651 0.990629C18.1058 1.4133 18.0985 2.28656 18.01 3.20726C17.9643 3.66401 17.9164 4.12573 17.8612 4.59021L17.776 5.28581L17.737 5.63223L17.705 5.82675L17.4765 7.33533L16.9813 10.3296C16.7086 11.9379 16.416 13.591 16.178 15.2026C16.1368 15.4587 16.0831 15.7568 16.0608 15.9974C16.0427 16.1308 16.0314 16.2651 16.0272 16.3998C15.983 16.4995 16.1179 16.44 16.1629 16.4063L16.3293 16.2893C16.5408 16.1386 16.7394 15.9761 16.943 15.8159L18.5076 14.5298L20.5649 12.8122L23.6169 10.2236L24.3278 9.8709L24.6738 9.70227L24.906 9.66804L25.377 9.58461C25.3902 9.55471 25.4878 9.63374 25.513 9.6449C25.5402 9.67926 25.5643 9.71588 25.5851 9.75435C25.6316 9.8297 25.6711 9.90907 25.703 9.99146C25.8969 10.4306 25.9949 10.9049 25.9906 11.3829C25.986 12.0189 25.896 12.766 25.8164 13.4761C25.6123 15.1743 25.5249 15.7796 25.3963 16.7362L25.0343 19.4437C24.5654 22.7596 24.0618 26.0722 23.6464 29.3761L23.4688 30.6747L23.381 31.4168C23.3674 31.6773 23.3725 31.9386 23.3961 32.1987C23.3961 32.1987 23.3718 32.2535 23.4228 32.288C23.4529 32.2848 23.4823 32.2779 23.5104 32.2672C23.5706 32.2472 23.6294 32.2234 23.6866 32.1962C23.7975 32.15 23.9078 32.0915 24.0181 32.0331L24.6007 31.7249L25.3687 31.2842L27.4105 30.0366C28.228 29.5523 29.0433 29.0729 29.8255 28.5729C30.2513 28.2857 30.7166 28.0603 31.2072 27.9033C31.389 27.8452 31.5754 27.8021 31.7646 27.7747L31.894 27.7546C31.9375 27.7381 31.9999 27.8015 32.0351 27.8171C32.0946 27.8947 32.1467 27.9777 32.1906 28.0649C32.422 28.5908 32.5422 29.1576 32.5437 29.7299C32.5561 30.0692 32.5568 30.4213 32.5597 30.7684L32.5451 31.7398L32.4925 34.6739C32.441 36.6127 32.394 38.5415 32.3346 40.4709C32.3066 41.323 32.3047 42.1569 32.2672 43.0168C32.2595 43.2519 32.2461 43.4725 32.2387 43.666C32.2312 43.7155 32.2272 43.7655 32.2266 43.8157C32.2512 43.8549 32.2831 43.8892 32.3204 43.9169L32.515 44.0627C32.515 44.0627 32.747 44.2192 32.8849 44.3161C33.0228 44.413 33.1658 44.5121 33.2863 44.6073C33.6746 44.8792 34.0025 45.2276 34.2495 45.6304C34.3609 45.7894 34.4577 45.9581 34.5386 46.1342C34.6024 46.3711 34.3129 46.4396 33.6977 46.3995C33.3165 46.3686 32.9373 46.316 32.5619 46.2419C32.3304 46.193 32.081 46.1301 31.8086 46.0511C31.7179 46.0109 31.4332 45.9325 31.2316 45.8431C31.0003 45.7582 30.7748 45.6582 30.5565 45.5439C30.3068 45.3924 30.0924 45.1896 29.9279 44.9493C29.8494 44.8238 29.7986 44.6834 29.7788 44.5375C29.7412 44.3902 29.7211 44.2392 29.719 44.0876C29.7238 43.1655 29.7257 42.2363 29.7472 41.3037C29.7613 40.4693 29.7755 39.6349 29.7941 38.7905L29.9591 33.7121L29.9927 32.4391L30.0011 31.781L30.0023 31.4655L30.0155 31.4356C30.0155 31.4356 29.9903 31.4244 29.9853 31.4222L29.9742 31.4471L29.4158 31.7959L28.2889 32.4889L26.3993 33.5833L25.6587 34.0302L24.7688 34.5421L23.8272 35.0072C23.5291 35.1494 23.2497 35.2223 22.9626 35.3395C22.7995 35.3727 22.6318 35.379 22.4661 35.358L22.2321 35.3556C22.1697 35.3335 22.109 35.3066 22.0507 35.2752C21.9261 35.2408 21.8073 35.1881 21.698 35.1189C21.6329 35.0831 21.57 35.0433 21.5097 34.9997L21.3605 34.874C21.1499 34.6794 20.9904 34.4367 20.8961 34.1673C20.766 33.7741 20.714 33.3603 20.743 32.9487C20.7556 32.4713 20.7944 31.9757 20.8455 31.4796L20.9705 30.1637L21.1565 28.6423L21.9818 22.6044L22.0461 22.609Z" fill="white" fill-opacity="0.5"/>
</svg>
