<svg width="64" height="30" viewBox="0 0 64 30" fill="none" xmlns="http://www.w3.org/2000/svg">
<path d="M23.4873 28.8003C22.7511 28.8816 22.0069 28.8548 21.2783 28.7208C20.5042 28.5804 19.7649 28.29 19.102 27.8659C18.4641 27.4605 17.9013 26.9475 17.4386 26.3498C16.9642 25.7745 16.5872 25.1253 16.3227 24.4281C15.8044 23.0403 15.7175 21.5284 16.0732 20.0906C16.3812 18.8354 16.8905 17.6385 17.5815 16.5465C18.8695 14.5378 20.4752 12.7519 22.3361 11.2586C22.7949 10.8917 23.2713 10.5291 23.7753 10.1874C24.2792 9.84559 24.8162 9.55863 25.3312 9.24757C26.3829 8.69892 27.4743 8.22978 28.5961 7.8441C31.8155 6.73224 35.2139 6.22951 38.6176 6.36161C40.1205 6.44666 41.613 6.6641 43.0778 7.01139C43.4448 7.1114 43.8128 7.18834 44.1754 7.30592L45.2666 7.66415L46.3791 8.14421C46.7463 8.31887 47.0862 8.54741 47.4381 8.74628C48.8134 9.62505 49.9669 10.8102 50.8081 12.2089C51.6232 13.5751 52.1468 15.0952 52.3458 16.6735C52.5485 18.2111 52.479 19.7723 52.1405 21.2856C51.9697 22.0544 51.7341 22.8073 51.4362 23.5363C51.2836 23.8902 51.12 24.2508 50.9564 24.5741C50.7694 24.9302 50.56 25.274 50.3294 25.6036C49.4366 26.9171 48.2505 28.0049 46.8648 28.7808C46.081 29.2156 45.1952 29.433 44.299 29.4105C43.3307 29.3549 42.4174 28.9415 41.7365 28.2504C41.1734 27.6691 40.7781 26.9463 40.5926 26.1586C40.4217 25.4558 40.3475 24.7331 40.3719 24.0104C40.4108 22.6273 40.6985 21.2626 41.2211 19.9817C42.2263 17.4164 44.0948 15.2825 46.5047 13.9479C49.6072 12.2088 53.3231 11.941 56.6439 13.2172C57.052 13.3715 57.4472 13.558 57.8257 13.775C58.212 13.9786 58.5858 14.2049 58.9454 14.4527C59.6661 14.9484 60.3101 15.5475 60.8567 16.2305C61.8812 17.5559 62.6597 19.0543 63.155 20.6546C63.4785 21.6112 63.5336 22.0491 63.4338 22.0571C63.3339 22.0651 63.0428 21.6574 62.5291 20.9803C61.8425 20.0715 61.0713 19.2299 60.2258 18.4667C59.7014 18.0094 59.1381 17.5988 58.5424 17.2394C57.9162 16.8424 57.2517 16.5094 56.5589 16.2457C56.2528 16.108 55.9355 15.9968 55.6104 15.9134C55.4515 15.8548 55.2875 15.8111 55.1204 15.783C55.0377 15.7627 54.953 15.7511 54.8678 15.7486L54.6217 15.6878C54.2946 15.6137 53.9623 15.5643 53.6278 15.5401C53.2935 15.4984 52.9562 15.4869 52.6199 15.5055C51.2827 15.5434 49.9666 15.8475 48.7485 16.4001C46.264 17.4314 44.3798 19.532 43.6231 22.114C43.4499 22.7546 43.3456 23.4119 43.312 24.0747C43.2688 24.6287 43.3289 25.1859 43.4894 25.7179C43.5847 26.0396 43.8024 26.311 44.0956 26.4739C44.4446 26.6126 44.8354 26.6012 45.1757 26.4424C46.3571 25.9093 47.3684 25.0604 48.0981 23.9891C48.202 23.8515 48.2828 23.713 48.3778 23.5732C48.464 23.4387 48.542 23.2992 48.6115 23.1554C48.7488 22.8256 48.9245 22.51 49.031 22.1539C49.2911 21.5047 49.4882 20.8321 49.6198 20.1452C49.7628 19.2943 49.7977 18.4287 49.7237 17.569C49.6375 16.7147 49.4331 15.8764 49.1166 15.0782C48.6427 13.8959 47.8962 12.8422 46.9378 12.0032C46.7804 11.8664 46.6022 11.7571 46.4338 11.6269C46.2684 11.4952 46.0909 11.3795 45.9036 11.2814C44.2958 10.4472 42.5409 9.93436 40.7371 9.77163C38.8594 9.56562 36.9655 9.55392 35.0855 9.73672C30.9415 10.1303 26.8684 11.4459 23.836 14.1751C22.268 15.4786 20.9361 17.0422 19.8983 18.7976C19.4241 19.6167 19.1084 20.5179 18.9679 21.454C18.8528 22.2981 19.0215 23.1567 19.4476 23.8946C19.9475 24.8126 20.8169 25.4722 21.8354 25.7063C22.9658 25.8648 24.1176 25.6891 25.1492 25.2009C27.4776 24.1639 29.5433 22.6171 31.1938 20.6747C32.4101 19.1673 33.377 17.4746 34.0578 15.6611C34.7773 13.9067 35.0673 12.0055 34.9034 10.116C34.7115 8.3257 33.7682 6.70093 32.3086 5.64665C30.7581 4.58429 28.9744 3.91161 27.1088 3.6857C24.1454 3.31222 21.1363 3.59721 18.2961 4.52033C17.5854 4.73062 16.8863 4.97811 16.2016 5.26177C15.5142 5.53487 14.8522 5.87488 14.1791 6.18418C12.8738 6.87515 11.6247 7.66717 10.443 8.55299L9.65872 9.12391C9.39026 9.28606 9.17044 9.55348 8.94273 9.75834L8.22458 10.4015L7.54501 11.0963L6.91463 11.7239C6.72973 11.9253 6.56789 12.1278 6.39942 12.3193C6.07345 12.6957 5.73081 13.0074 5.47606 13.3408C4.96542 13.9933 4.48171 14.48 4.13063 14.9015C3.60871 15.5624 2.95506 16.1075 2.21117 16.5021C1.94315 16.659 1.66568 16.7991 1.38035 16.9217C0.989871 17.0304 0.903897 16.5661 1.04892 15.5435C1.08713 15.2542 1.14679 14.9681 1.22739 14.6877C1.33844 14.3887 1.46695 14.0568 1.61954 13.7028C1.98183 12.8721 2.42424 12.0788 2.9405 11.3341C4.64852 8.79762 6.82427 6.61015 9.35134 4.88869C11.9213 3.09129 14.7764 1.74108 17.7963 0.895026C20.9291 -0.00801733 24.2177 -0.237864 27.446 0.220583C29.1436 0.467449 30.7946 0.968127 32.3435 1.70584C33.1668 2.11412 33.9432 2.61085 34.659 3.18724C35.4074 3.80607 36.0662 4.52596 36.6164 5.32623C37.4196 6.53321 37.9416 7.90513 38.1439 9.34068C38.3195 10.6685 38.2908 12.0154 38.0586 13.3343C37.596 15.7765 36.6758 18.1089 35.3464 20.2087C35.0319 20.7278 34.6877 21.235 34.328 21.7289C33.9545 22.2474 33.549 22.7421 33.1141 23.2102C32.2724 24.0887 31.3695 24.9065 30.4123 25.6574C29.4431 26.4218 28.4022 27.0906 27.3041 27.6545C26.1163 28.2801 24.8292 28.6956 23.4997 28.8826L23.4873 28.8003Z" fill="white" fill-opacity="0.5"/>
</svg>
